<svg viewBox="0 0 1 1" fill="currentColor" xmlns="http://www.w3.org/2000/svg">
  <path d="M0.61768 0.177734C0.609405 0.192555 0.60203 0.20786 0.595596 0.223568C0.532378 0.21357 0.467981 0.21357 0.404763 0.223568C0.398329 0.20786 0.390955 0.192555 0.38268 0.177734C0.323129 0.187909 0.265238 0.206132 0.210596 0.231901C0.112886 0.372913 0.0685729 0.544107 0.0855963 0.714818C0.149273 0.762687 0.22074 0.799196 0.296846 0.822734C0.314176 0.799843 0.329642 0.775598 0.343096 0.750234C0.318266 0.741079 0.2944 0.729495 0.271846 0.715651C0.278032 0.711535 0.283884 0.706938 0.289346 0.701901C0.355115 0.733581 0.427178 0.750032 0.50018 0.750032C0.573181 0.750032 0.645244 0.733581 0.711013 0.701901C0.716846 0.706901 0.72268 0.711484 0.728513 0.715651C0.705836 0.729386 0.681994 0.741098 0.657263 0.750651C0.670159 0.77659 0.685212 0.8014 0.702263 0.824818C0.778274 0.80136 0.849618 0.764842 0.913096 0.716901C0.930529 0.54616 0.88618 0.374825 0.788096 0.233984C0.734068 0.207682 0.676749 0.188762 0.61768 0.177734V0.177734ZM0.361846 0.617318C0.340996 0.615821 0.321536 0.606305 0.307551 0.590767C0.293567 0.575228 0.286146 0.554877 0.286846 0.533984C0.28604 0.513064 0.293425 0.492655 0.30743 0.477093C0.321435 0.461532 0.340957 0.452046 0.361846 0.450651C0.382735 0.452046 0.402257 0.461532 0.416262 0.477093C0.430268 0.492655 0.437652 0.513064 0.436846 0.533984C0.437652 0.554905 0.430268 0.575314 0.416262 0.590876C0.402257 0.606437 0.382735 0.615923 0.361846 0.617318V0.617318ZM0.638513 0.617318C0.617662 0.615821 0.598202 0.606305 0.584218 0.590767C0.570234 0.575228 0.562813 0.554877 0.563513 0.533984C0.562707 0.513064 0.570092 0.492655 0.584097 0.477093C0.598102 0.461532 0.617624 0.452046 0.638513 0.450651C0.659441 0.451942 0.679026 0.461397 0.693053 0.476982C0.707079 0.492567 0.714426 0.513037 0.713513 0.533984C0.714426 0.554932 0.707079 0.575401 0.693053 0.590987C0.679026 0.606572 0.659441 0.616027 0.638513 0.617318V0.617318Z"/>
</svg>
