<svg viewBox="0 0 1 1" fill="currentColor" xmlns="http://www.w3.org/2000/svg">
  <path d="M0.541666 0.799805H0.375V0.299805H0.541666V0.383138C0.559212 0.360816 0.58148 0.342653 0.606873 0.329953C0.632267 0.317253 0.660156 0.310329 0.688541 0.30968C0.738182 0.309955 0.785688 0.329906 0.820642 0.365156C0.855595 0.400406 0.875143 0.448079 0.874999 0.497721V0.799805H0.708333V0.518555C0.705109 0.496037 0.693861 0.475441 0.676658 0.460558C0.659455 0.445675 0.637455 0.437506 0.614708 0.437555C0.604527 0.437877 0.594516 0.440252 0.585276 0.444538C0.576035 0.448824 0.567756 0.454933 0.560935 0.462497C0.554113 0.470062 0.54889 0.478927 0.545579 0.488559C0.542268 0.498192 0.540937 0.508395 0.541666 0.518555V0.799805ZM0.291666 0.799805H0.125V0.299805H0.291666V0.799805ZM0.208333 0.216471C0.186232 0.216471 0.165036 0.207692 0.149408 0.192064C0.13378 0.176436 0.125 0.155239 0.125 0.133138C0.125 0.111037 0.13378 0.0898405 0.149408 0.0742125C0.165036 0.0585844 0.186232 0.0498047 0.208333 0.0498047C0.230435 0.0498047 0.251631 0.0585844 0.267259 0.0742125C0.282887 0.0898405 0.291666 0.111037 0.291666 0.133138C0.291666 0.155239 0.282887 0.176436 0.267259 0.192064C0.251631 0.207692 0.230435 0.216471 0.208333 0.216471Z"/>
</svg>
