<svg viewBox="0 0 1 1" fill="currentColor" xmlns="http://www.w3.org/2000/svg">
  <path d="M0.815137 0.273242L0.875 0.215723V0.203125H0.667676L0.519922 0.572656L0.351855 0.203125H0.134473V0.215723L0.204395 0.300293C0.21123 0.306543 0.214746 0.315723 0.213867 0.324902V0.657227C0.216016 0.669238 0.212207 0.681445 0.203809 0.690137L0.125 0.786133V0.798535H0.348242V0.785937L0.269531 0.690234C0.265314 0.685953 0.262142 0.680755 0.260262 0.675047C0.258381 0.669339 0.257844 0.663274 0.258691 0.657324V0.369824L0.454688 0.79873H0.477441L0.645996 0.369824V0.711523C0.645996 0.720508 0.645996 0.722363 0.640137 0.72832L0.579492 0.787207V0.799805H0.873633V0.787207L0.815137 0.729688C0.810059 0.725781 0.807422 0.719238 0.808496 0.712891V0.290039C0.80799 0.286901 0.80834 0.283684 0.809509 0.280728C0.810678 0.277772 0.812622 0.275186 0.815137 0.273242V0.273242Z"/>
</svg>
