<svg viewBox="0 0 1 1" fill="currentColor" xmlns="http://www.w3.org/2000/svg">
  <path d="M0.897207 0.29616C0.897842 0.305043 0.897842 0.313928 0.897842 0.322811C0.897842 0.593748 0.691625 0.905932 0.314721 0.905932C0.198604 0.905932 0.0907363 0.872301 0 0.813928C0.016498 0.81583 0.0323594 0.816465 0.0494922 0.816465C0.145303 0.816465 0.233502 0.784105 0.303934 0.728902C0.213832 0.726998 0.138324 0.667988 0.112309 0.58677C0.125 0.588672 0.137689 0.589941 0.151016 0.589941C0.169416 0.589941 0.187818 0.587402 0.204949 0.582963C0.111041 0.563926 0.0406074 0.481439 0.0406074 0.38182V0.379283C0.0678906 0.394512 0.0996191 0.404029 0.133246 0.405297C0.078043 0.368494 0.041877 0.305678 0.041877 0.234611C0.041877 0.196541 0.0520273 0.161643 0.0697949 0.131186C0.170684 0.255551 0.322334 0.336768 0.492383 0.345652C0.489211 0.330424 0.487307 0.314563 0.487307 0.298699C0.487307 0.185754 0.578678 0.09375 0.692256 0.09375C0.751266 0.09375 0.804564 0.118496 0.842002 0.158471C0.88832 0.149588 0.932736 0.132455 0.972078 0.108979C0.956848 0.156568 0.924488 0.196543 0.881977 0.221922C0.923221 0.217482 0.963195 0.206059 0.999996 0.190197C0.972082 0.230805 0.937182 0.266971 0.897207 0.29616V0.29616Z" />
</svg>
