<svg viewBox="0 0 407 24" fill="currentColor" xmlns="http://www.w3.org/2000/svg">
  <path d="M0 0.0689856V3.8232H19.284V23.96H23.1752V3.8232H42.5271V0.0689856H0Z" />
  <path d="M83.8935 0.0689856V10.1669H49.1138V0.0689856H45.2566V23.964H49.1138V13.8921H83.8935V23.96H87.7857V0.0689856H83.8935Z" />
  <path d="M91.8809 23.961H134.472V20.2068H91.8809V23.961ZM91.8809 13.8241H132.427V10.1369H91.8809V13.8241ZM91.8809 0V3.75422H134.472V0.0339929L91.8809 0Z" />
  <path d="M160.758 23.961H203.35V20.2068H160.758V23.961ZM160.758 13.8241H201.31V10.1369H160.758V13.8241ZM160.758 0V3.75422H203.35V0.0339929L160.758 0Z" />
  <path d="M206.425 7.10052V6.96455C206.421 6.06739 206.613 5.18018 206.988 4.36509C207.361 3.54929 207.888 2.81354 208.542 2.19854C209.212 1.56549 209.991 1.05759 210.841 0.698854C211.731 0.320147 212.689 0.128223 213.656 0.134972H276.014V3.89219H256.664V23.961H252.775V3.8582H213.629C213.185 3.85576 212.744 3.93717 212.33 4.09815C211.939 4.24626 211.583 4.47149 211.281 4.7604C210.979 5.04932 210.739 5.396 210.574 5.7798C210.405 6.16973 210.318 6.59013 210.318 7.01504C210.318 7.43994 210.405 7.86034 210.574 8.25028C210.738 8.63095 210.976 8.97545 211.274 9.26407C211.581 9.55683 211.94 9.78976 212.333 9.95093C212.744 10.1225 213.186 10.2095 213.632 10.2069H241.756C242.666 10.2073 243.568 10.3751 244.418 10.7018C245.267 11.023 246.047 11.5024 246.718 12.1145C247.39 12.7289 247.935 13.469 248.322 14.293C248.728 15.167 248.933 16.1208 248.922 17.0844C248.932 18.0349 248.734 18.9761 248.342 19.8419C247.969 20.6617 247.441 21.4018 246.788 22.0214C246.123 22.6447 245.341 23.1306 244.488 23.4511C243.594 23.7929 242.645 23.9662 241.689 23.962H206.425V20.2428H241.718C242.593 20.2406 243.435 19.9049 244.072 19.304C244.369 19.018 244.607 18.6762 244.772 18.2982C244.942 17.9106 245.029 17.4917 245.028 17.0684C245.036 16.6495 244.955 16.2336 244.79 15.8483C244.626 15.4631 244.381 15.1173 244.072 14.8339C243.769 14.5409 243.411 14.3107 243.018 14.1563C242.626 14.0019 242.207 13.9264 241.786 13.9341H213.591C212.672 13.9369 211.761 13.7571 210.912 13.4052C210.07 13.0607 209.296 12.5692 208.626 11.9535C207.957 11.3419 207.414 10.606 207.026 9.78696C206.625 8.95102 206.42 8.03465 206.426 7.10752" />
  <path d="M406.809 3.8582H371.517C371.072 3.85576 370.631 3.93717 370.217 4.09815C369.826 4.24592 369.468 4.47099 369.166 4.75992C368.864 5.04886 368.623 5.39572 368.458 5.7798C368.289 6.16973 368.202 6.59013 368.202 7.01504C368.202 7.43994 368.289 7.86034 368.458 8.25028C368.622 8.63119 368.86 8.97578 369.158 9.26407C369.465 9.5571 369.824 9.79007 370.217 9.95093C370.629 10.1226 371.071 10.2096 371.517 10.2069H399.642C400.552 10.2073 401.454 10.3751 402.304 10.7018C403.153 11.0226 403.934 11.502 404.604 12.1145C405.275 12.7293 405.82 13.4693 406.208 14.293C406.614 15.167 406.819 16.1208 406.808 17.0844C406.818 18.0349 406.621 18.9761 406.228 19.8419C405.857 20.6617 405.33 21.4018 404.677 22.0214C404.012 22.6452 403.231 23.1311 402.377 23.4511C401.484 23.7929 400.534 23.9662 399.578 23.962H364.315V20.2428H399.608C400.483 20.2407 401.325 19.905 401.962 19.304C402.259 19.0173 402.497 18.6748 402.662 18.2962C402.832 17.909 402.92 17.4904 402.918 17.0674C402.926 16.6485 402.845 16.2326 402.681 15.8473C402.516 15.4621 402.271 15.1163 401.962 14.8329C401.659 14.54 401.301 14.3097 400.909 14.1553C400.516 14.0009 400.097 13.9254 399.676 13.9331H371.482C370.562 13.9359 369.651 13.7561 368.802 13.4042C367.96 13.0595 367.185 12.5679 366.515 11.9525C365.847 11.3404 365.303 10.6046 364.915 9.78596C364.514 8.95002 364.309 8.03365 364.315 7.10652V6.96455C364.311 6.06739 364.503 5.18018 364.878 4.36509C365.251 3.54918 365.779 2.81315 366.432 2.19754C367.103 1.56531 367.882 1.05752 368.731 0.697855C369.621 0.319354 370.579 0.127764 371.547 0.134972H406.804L406.809 3.8582Z" />
  <path d="M261.751 23.996L283.595 0.104978C284.003 0.536888 284.703 1.28707 285.694 2.35551C286.686 3.42395 287.841 4.68136 289.16 6.12772L293.427 10.8037C294.951 12.4767 296.458 14.1267 297.948 15.7537C299.438 17.3807 300.838 18.9164 302.147 20.3608C303.455 21.8065 304.553 23.0182 305.44 23.996H300.251C300.228 23.9727 299.972 23.6941 299.483 23.1602C298.993 22.6263 298.356 21.9324 297.571 21.0786C296.786 20.2255 295.899 19.259 294.91 18.1792C293.92 17.0994 292.907 15.99 291.871 14.8509C290.835 13.7125 289.823 12.6027 288.833 11.5216L286.194 8.6372C285.421 7.79538 284.556 6.85091 283.601 5.80379L266.675 24L261.751 23.996Z" />
  <path d="M291.513 3.79021V0.0349927H361.244V3.75622H314.688V23.962H310.797V3.79021H291.513ZM359.199 13.8591H318.648V10.1379H359.196L359.199 13.8591ZM318.651 20.2418H361.242V23.961H318.651V20.2418Z" />
</svg>
